{
  "accessors": [
    {
      "bufferView": 2,
      "componentType": 5126,
      "count": 1153,
      "max": [
        0.8737849593162537,
        0.8547623157501221,
        0.17054608464241028
      ],
      "min": [
        -0.8722173571586609,
        -0.9814005494117737,
        -0.18428970873355865
      ],
      "type": "VEC3"
    },
    {
      "bufferView": 2,
      "byteOffset": 13836,
      "componentType": 5126,
      "count": 1153,
      "max": [
        0.9985656142234802,
        0.9986201524734497,
        0.9996221661567688
      ],
      "min": [
        -0.9999290108680725,
        -0.9994290471076965,
        -0.9998607635498047
      ],
      "type": "VEC3"
    },
    {
      "bufferView": 1,
      "componentType": 5126,
      "count": 1153,
      "max": [
        0.9985016584396362,
        0.9997548460960388
      ],
      "min": [
        0.002860146574676037,
        0.0003306865692138672
      ],
      "type": "VEC2"
    },
    {
      "bufferView": 0,
      "componentType": 5125,
      "count": 4065,
      "type": "SCALAR"
    }
  ],
  "asset": {
    "extras": {
      "author": "zairiq-123 (https://sketchfab.com/marzitamazlan10)",
      "license": "CC-BY-4.0 (http://creativecommons.org/licenses/by/4.0/)",
      "source": "https://sketchfab.com/3d-models/gta-vice-city-tommy-vercetti-becc568818fa42a9aee08af2644af841",
      "title": "gta vice city Tommy Vercetti"
    },
    "generator": "Sketchfab-16.58.0",
    "version": "2.0"
  },
  "bufferViews": [
    {
      "buffer": 0,
      "byteLength": 16260,
      "name": "floatBufferViews",
      "target": 34963
    },
    {
      "buffer": 0,
      "byteLength": 9224,
      "byteOffset": 16260,
      "byteStride": 8,
      "name": "floatBufferViews",
      "target": 34962
    },
    {
      "buffer": 0,
      "byteLength": 27672,
      "byteOffset": 25484,
      "byteStride": 12,
      "name": "floatBufferViews",
      "target": 34962
    }
  ],
  "buffers": [
    {
      "byteLength": 53156,
      "uri": "scene.bin"
    }
  ],
  "images": [
    {
      "uri": "textures/GTA_Mtl_baseColor.png"
    }
  ],
  "materials": [
    {
      "doubleSided": true,
      "name": "GTA_Mtl",
      "pbrMetallicRoughness": {
        "baseColorTexture": {
          "index": 0
        },
        "metallicFactor": 0.0,
        "roughnessFactor": 0.6
      }
    }
  ],
  "meshes": [
    {
      "name": "Root_GTA_Mtl_0",
      "primitives": [
        {
          "attributes": {
            "NORMAL": 1,
            "POSITION": 0,
            "TEXCOORD_0": 2
          },
          "indices": 3,
          "material": 0,
          "mode": 4
        }
      ]
    }
  ],
  "nodes": [
    {
      "children": [
        1
      ],
      "matrix": [
        1.0,
        0.0,
        0.0,
        0.0,
        0.0,
        2.220446049250313e-16,
        -1.0,
        0.0,
        0.0,
        1.0,
        2.220446049250313e-16,
        0.0,
        0.0,
        0.0,
        0.0,
        1.0
      ],
      "name": "Sketchfab_model"
    },
    {
      "children": [
        2
      ],
      "matrix": [
        0.02539999969303608,
        0.0,
        0.0,
        0.0,
        0.0,
        0.0,
        0.02539999969303608,
        0.0,
        0.0,
        -0.02539999969303608,
        0.0,
        0.0,
        0.0,
        0.0,
        0.0,
        1.0
      ],
      "name": "a1857c300a2541f6afc2c7cf2002841b.fbx"
    },
    {
      "children": [
        3
      ],
      "name": "RootNode"
    },
    {
      "children": [
        4
      ],
      "matrix": [
        7.663641929626465,
        0.0,
        0.0,
        0.0,
        0.0,
        7.660594151565394,
        0.2161130966205855,
        0.0,
        0.0,
        -0.2161130966205855,
        7.660594151565394,
        0.0,
        0.00708562508225441,
        7.519931793212891,
        0.19303631782531738,
        1.0
      ],
      "name": "Root"
    },
    {
      "mesh": 0,
      "name": "Root_GTA_Mtl_0"
    }
  ],
  "samplers": [
    {
      "magFilter": 9729,
      "minFilter": 9987,
      "wrapS": 10497,
      "wrapT": 10497
    }
  ],
  "scene": 0,
  "scenes": [
    {
      "name": "Sketchfab_Scene",
      "nodes": [
        0
      ]
    }
  ],
  "textures": [
    {
      "sampler": 0,
      "source": 0
    }
  ]
}
